<svg xmlns="http://www.w3.org/2000/svg" width="16" height="16" viewBox="0 0 16 16"><g transform="translate(10000 6725)"><g transform="translate(55 -4)"><g opacity="0"><path d="M0,0H16V16H0Z" transform="translate(-10055 -6721)" fill="#fff"/><path d="M.5.5h15v15H.5Z" transform="translate(-10055 -6721)" fill="none" stroke="#707070" stroke-width="1"/></g><g transform="translate(-10073 -6739)"><path d="M22.949,300.983H21.017A1.017,1.017,0,0,1,20,299.966v-2.949A1.017,1.017,0,0,1,21.017,296h1.932" transform="translate(0 -268.983)" fill="none" stroke="#000" stroke-linecap="round" stroke-linejoin="round" stroke-miterlimit="10" stroke-width="1"/><path d="M140.068,109.966H136v-8.949A1.017,1.017,0,0,1,137.017,100h4.068a1.017,1.017,0,0,1,1.017,1.017v8.949" transform="translate(-113.051 -77.966)" fill="none" stroke="#000" stroke-linecap="round" stroke-linejoin="round" stroke-miterlimit="10" stroke-width="1"/><path d="M376,216l2.254.785a1.017,1.017,0,0,1,.7.965V222a1.017,1.017,0,0,1-1.017,1.017H376" transform="translate(-346.949 -191.017)" fill="none" stroke="#000" stroke-linecap="round" stroke-linejoin="round" stroke-miterlimit="10" stroke-width="1"/><path d="M0,0V2.034" transform="translate(24.983 20)" fill="none" stroke="#000" stroke-linecap="round" stroke-linejoin="round" stroke-miterlimit="10" stroke-width="1"/><path d="M0,0V1.017" transform="translate(27.017 21.017)" fill="none" stroke="#000" stroke-linecap="round" stroke-linejoin="round" stroke-miterlimit="10" stroke-width="1"/><path d="M0,0H2.034" transform="translate(24.983 23.966)" fill="none" stroke="#000" stroke-linecap="round" stroke-linejoin="round" stroke-miterlimit="10" stroke-width="1"/><path d="M0,0H2.034" transform="translate(24.983 26)" fill="none" stroke="#000" stroke-linecap="round" stroke-linejoin="round" stroke-miterlimit="10" stroke-width="1"/><path d="M0,0H2.034" transform="translate(24.983 28.034)" fill="none" stroke="#000" stroke-linecap="round" stroke-linejoin="round" stroke-miterlimit="10" stroke-width="1"/><path d="M216,414.034v-1.017a1.017,1.017,0,1,1,2.034,0v1.017" transform="translate(-191.017 -382.034)" fill="none" stroke="#000" stroke-linecap="round" stroke-linejoin="round" stroke-miterlimit="10" stroke-width="1"/></g></g></g></svg>