<svg xmlns="http://www.w3.org/2000/svg" id="artboard-svg" width="35" height="35" viewBox="0 0 35 35"><defs><style>.cls-1 { clip-path: url(#clip-icon); } .cls-2, .cls-7 { fill: rgba(255,255,255,0); } .cls-3, .cls-9 { fill: #666; } .cls-10, .cls-13, .cls-22, .cls-24, .cls-4, .cls-5, .cls-6, .cls-8 { fill: none; } .cls-10, .cls-12, .cls-24, .cls-5, .cls-6, .cls-8 { stroke: #666; } .cls-22, .cls-5, .cls-8 { stroke-linecap: round; } .cls-22, .cls-5, .cls-6 { stroke-linejoin: round; } .cls-10, .cls-12, .cls-13, .cls-22, .cls-24, .cls-5, .cls-6, .cls-8 { stroke-width: 2px; } .cls-10, .cls-6 { stroke-linecap: square; } .cls-15, .cls-19, .cls-20, .cls-21, .cls-23, .cls-7, .cls-9 { opacity: 0; } .cls-10, .cls-8 { stroke-miterlimit: 10; } .cls-11 { fill: #616161; } .cls-12, .cls-18 { fill: #fff; } .cls-13 { stroke: #3c4ada; } .cls-14 { fill: #3c4ada; } .cls-15, .cls-16 { fill: #f44336; } .cls-17 { fill: url(#linear-gradient); } .cls-19 { fill: #212121; } .cls-20 { fill: #737888; } .cls-21 { fill: #686c7b; } .cls-22 { stroke: #fff; } .cls-23 { fill: #1c80f2; } .cls-25 { stroke: none; } .cls-26 { filter: url(#Path_33741); } .cls-27 { filter: url(#Path_33737); } .cls-28 { filter: url(#Path_33736); } .cls-29 { filter: url(#Path_33732); } .cls-30 { filter: url(#Path_33731); } .cls-31 { filter: url(#Path_33733); }</style><linearGradient id="linear-gradient" x1=".5" x2=".5" y2="1" gradientUnits="objectBoundingBox"><stop offset="0" stop-color="#fe8c00"/><stop offset="1" stop-color="#f83600"/></linearGradient><filter id="Path_33733" width="14.413" height="14.413" x="13.293" y="86.421" filterUnits="userSpaceOnUse"><feOffset dy="1"/><feGaussianBlur result="blur" stdDeviation=".5"/><feFlood flood-opacity=".161"/><feComposite in2="blur" operator="in"/><feComposite in="SourceGraphic"/></filter><filter id="Path_33731" width="9.869" height="18.762" x="5.86" y="81.252" filterUnits="userSpaceOnUse"><feOffset dy="1"/><feGaussianBlur result="blur-2" stdDeviation=".5"/><feFlood flood-opacity=".161"/><feComposite in2="blur-2" operator="in"/><feComposite in="SourceGraphic"/></filter><filter id="Path_33732" width="14.599" height="10.531" x="9.64" y="76.94" filterUnits="userSpaceOnUse"><feOffset dy="1"/><feGaussianBlur result="blur-3" stdDeviation=".5"/><feFlood flood-opacity=".161"/><feComposite in2="blur-3" operator="in"/><feComposite in="SourceGraphic"/></filter><filter id="Path_33736" width="12.55" height="8.052" x="8.957" y="80.015" filterUnits="userSpaceOnUse"><feOffset dy="1"/><feGaussianBlur result="blur-4" stdDeviation=".5"/><feFlood flood-opacity=".161"/><feComposite in2="blur-4" operator="in"/><feComposite in="SourceGraphic"/></filter><filter id="Path_33737" width="7.083" height="7.659" x="11.673" y="83.315" filterUnits="userSpaceOnUse"><feOffset dy="1"/><feGaussianBlur result="blur-5" stdDeviation=".5"/><feFlood flood-opacity=".161"/><feComposite in2="blur-5" operator="in"/><feComposite in="SourceGraphic"/></filter><filter id="Path_33741" width="6.132" height="10.138" x="8.934" y="86.847" filterUnits="userSpaceOnUse"><feOffset dy="1"/><feGaussianBlur result="blur-6" stdDeviation=".5"/><feFlood flood-opacity=".161"/><feComposite in2="blur-6" operator="in"/><feComposite in="SourceGraphic"/></filter><clipPath id="clip-icon"><path d="M0 0h360v120H0z"/></clipPath></defs><g transform="translate(0 -72)"><g id="icon" class="cls-1"><g id="Group_34864" data-name="Group 34864" transform="translate(0 72)"><g id="Group_30219" data-name="Group 30219"><g id="Group_29954" data-name="Group 29954"><path id="App_Icon_Mask-2" d="M330.125 1097.01v-1.146c0-.322-.006-.644-.015-.966a14 14 0 0 0-.184-2.1 7.072 7.072 0 0 0-.659-2 6.717 6.717 0 0 0-2.938-2.938 7.079 7.079 0 0 0-2-.657 13.974 13.974 0 0 0-2.1-.185 51.734 51.734 0 0 0-.966-.014H306.99c-.322 0-.646.006-.966.014a13.984 13.984 0 0 0-2.1.185 7.078 7.078 0 0 0-2 .658 6.72 6.72 0 0 0-2.938 2.938 7.089 7.089 0 0 0-.659 2 14.088 14.088 0 0 0-.184 2.1q-.013.483-.014.965v14.271q0 .482.014.966a14.088 14.088 0 0 0 .184 2.1 7.1 7.1 0 0 0 .659 2 6.73 6.73 0 0 0 2.938 2.938 7.1 7.1 0 0 0 2 .658 14.064 14.064 0 0 0 2.1.185c.321.008.644.012.966.015h14.273c.322 0 .644-.006.966-.015a14.059 14.059 0 0 0 2.1-.185 7.094 7.094 0 0 0 2-.658 6.73 6.73 0 0 0 2.938-2.937 7.074 7.074 0 0 0 .659-2 13.992 13.992 0 0 0 .184-2.1c.008-.322.012-.644.015-.966v-1.147z" class="cls-17" data-name="App Icon Mask-2" transform="translate(-298.125 -1087)"/></g><g id="Group_30036" data-name="Group 30036" transform="translate(7.36 5.44)"><path id="Path_33730" d="M830.908 2217.7v-3.554a.35.35 0 0 0-.134-.278.518.518 0 0 0-.873.368v3.463a1.258 1.258 0 0 0-.649.649h-2.211a.349.349 0 0 0-.278.135.518.518 0 0 0 .369.872h2.12a1.276 1.276 0 0 0 1.78.6 1.065 1.065 0 0 0 .478-.478 1.276 1.276 0 0 0-.602-1.777z" class="cls-4" data-name="Path 33730" transform="translate(-817.182 -2203.58)"/><g class="cls-31" transform="translate(-7.36 -77.44)"><path id="Path_33733-2" d="M831.313 2215.081a5.291 5.291 0 0 0-3.012-3.012 5.753 5.753 0 0 0-7.531 7.531 5.293 5.293 0 0 0 3.013 3.013 5.753 5.753 0 0 0 7.53-7.532zm-4.082 2.971a1.065 1.065 0 0 1-.478.478 1.276 1.276 0 0 1-1.78-.6h-2.211a.35.35 0 0 1-.278-.134.518.518 0 0 1 .369-.873h2.12a1.259 1.259 0 0 1 .649-.649v-3.554a.35.35 0 0 1 .134-.278.518.518 0 0 1 .873.369v3.463a1.276 1.276 0 0 1 .602 1.778z" class="cls-18" data-name="Path 33733" transform="translate(-805.54 -2124.71)"/></g><path id="Path_33734" d="M832.369 2205.99v.036z" class="cls-4" data-name="Path 33734" transform="translate(-821.086 -2198.315)"/><path id="Path_33738" d="M815 2234.933a.847.847 0 0 0 .2.095q-.1-.046-.2-.1z" class="cls-4" data-name="Path 33738" transform="translate(-809.271 -2217.996)"/><path id="Path_33739" d="M816.246 2232.019q.02.109.044.216a1.616 1.616 0 0 0-.044-.216z" class="cls-4" data-name="Path 33739" transform="translate(-810.122 -2216.015)"/><path id="Path_33740" d="M814.825 2229.718l.018.015z" class="cls-4" data-name="Path 33740" transform="translate(-809.156 -2214.451)"/><g id="Group_30037" data-name="Group 30037"><g class="cls-30" transform="translate(-7.36 -77.44)"><path id="Path_33731-2" d="M803.566 2209.885a6.136 6.136 0 0 1-5.088-6.069v-4.108a6.108 6.108 0 0 1 .923-3.246.523.523 0 0 0 .068-.429.7.7 0 0 0-1.269-.231 7.469 7.469 0 0 0-1.091 3.906v4.108a7.5 7.5 0 0 0 6.245 7.422.5.5 0 0 0 .585-.443l.037-.372a.5.5 0 0 0-.41-.538z" class="cls-18" data-name="Path 33731" transform="translate(-789.75 -2113.73)"/></g><g class="cls-29" transform="translate(-7.36 -77.44)"><path id="Path_33732-2" d="M809.94 2184.192a6.1 6.1 0 0 1 3.066-.815 6.17 6.17 0 0 1 6.144 5.708.493.493 0 0 0 .493.454h.376a.5.5 0 0 0 .5-.537 7.531 7.531 0 0 0-11.331-5.953.552.552 0 0 0-.266.477v.073a.682.682 0 0 0 1.018.593z" class="cls-18" data-name="Path 33732" transform="translate(-797.78 -2104.57)"/></g><g class="cls-28" transform="translate(-7.36 -77.44)"><path id="Path_33736-2" d="M816.327 2196.161a4.861 4.861 0 0 0-4.236-4.518 4.794 4.794 0 0 0-5.3 4.275.447.447 0 0 0 .446.488h.481a.444.444 0 0 0 .44-.393 3.423 3.423 0 0 1 6.817.2v.036a.434.434 0 0 0 .52.413q.179-.022.359-.036a.9.9 0 0 0 .113-.012c.292-.052.355-.229.363-.346a.392.392 0 0 0-.003-.107z" class="cls-18" data-name="Path 33736" transform="translate(-796.33 -2111.1)"/></g><g class="cls-27" transform="translate(-7.36 -77.44)"><path id="Path_33737-2" d="M819.334 2203.586a2.073 2.073 0 0 0-1.953-1.653 2.028 2.028 0 0 0-2.108 2v2a.675.675 0 0 0 .684.666.675.675 0 0 0 .685-.666v-1.95a.7.7 0 0 1 .622-.709.678.678 0 0 1 .747.663v.062s-.144 1.021.911.47a.458.458 0 0 0 .052-.025.713.713 0 0 0 .36-.858z" class="cls-18" data-name="Path 33737" transform="translate(-802.1 -2118.12)"/></g><g class="cls-26" transform="translate(-7.36 -77.44)"><path id="Path_33741-2" d="M809.568 2220.091c.3.085.315-.267.242-.811q-.024-.108-.044-.216a1.5 1.5 0 0 0-.436-.721l-.018-.015-.008-.006a3.407 3.407 0 0 1-1.219-2.616v-2.24a.5.5 0 0 0-.5-.5h-.372a.5.5 0 0 0-.5.5v2.24a4.793 4.793 0 0 0 2.545 4.237.632.632 0 0 1 .1.054c.073.031.142.063.21.094z" class="cls-18" data-name="Path 33741" transform="translate(-796.28 -2125.62)"/></g></g><path id="Path_33742" d="M814.809 2229.706l-.007-.006z" class="cls-18" data-name="Path 33742" transform="translate(-809.14 -2214.438)"/><path id="Path_33743" d="M814.667 2234.763l.1.054a.693.693 0 0 0-.1-.054z" class="cls-18" data-name="Path 33743" transform="translate(-809.048 -2217.881)"/></g></g></g></g></g></svg>